Coordinates
version=1
nRows=21
nColumns=12
inDegrees=yes

Units are S.I. units (second, meters, Newtons, ...)
Angles are in degrees

endheader
time	SC_y	SC_z	SC_x	AC_y	AC_z	AC_x	GH_y	GH_z	GH_yy	EL_x	PS_y
       0.0              -54.08          21.33          42.34          49.39         -3.296           11.3         -172.0          66.93          147.0          62.11          152.8
   0.04439              -54.08          21.33          42.34          49.39         -3.295          11.29         -172.0          66.93          147.0          62.11          152.8
   0.08877              -54.08          21.32          42.35          49.39         -3.294          11.29         -172.0          66.93          147.0          62.12          152.7
    0.1332              -54.08          21.32          42.35          49.38         -3.293          11.29         -171.9          66.93          147.0          62.13          152.7
    0.1775              -54.08          21.32          42.36          49.38         -3.292          11.28         -171.9          66.93          147.0          62.14          152.7
    0.2219              -54.09          21.32          42.36          49.38         -3.291          11.28         -171.9          66.93          147.0          62.14          152.7
    0.2663              -54.09          21.31          42.37          49.38          -3.29          11.28         -171.8          66.93          147.0          62.15          152.7
    0.3107              -54.09          21.31          42.37          49.38         -3.288          11.27         -171.8          66.92          147.0          62.16          152.6
    0.3551              -54.09          21.31          42.38          49.37         -3.287          11.27         -171.8          66.92          146.9          62.17          152.6
    0.3995              -54.09           21.3          42.38          49.37         -3.285          11.27         -171.7          66.92          146.9          62.18          152.6
    0.4439              -54.09           21.3          42.39          49.37         -3.284          11.26         -171.7          66.92          146.9          62.19          152.6
    0.4883              -54.09           21.3           42.4          49.36         -3.282          11.26         -171.6          66.92          146.9          62.21          152.5
    0.5326              -54.09          21.29          42.41          49.36          -3.28          11.25         -171.6          66.91          146.9          62.22          152.5
     0.577              -54.09          21.29          42.41          49.36         -3.278          11.24         -171.5          66.91          146.9          62.23          152.4
    0.6214              -54.09          21.28          42.42          49.35         -3.275          11.24         -171.5          66.91          146.9          62.25          152.4
    0.6658               -54.1          21.28          42.43          49.35         -3.273          11.23         -171.4           66.9          146.8          62.27          152.4
    0.7102               -54.1          21.27          42.44          49.34          -3.27          11.22         -171.3           66.9          146.8          62.28          152.3
    0.7546               -54.1          21.27          42.46          49.34         -3.267          11.22         -171.2           66.9          146.8           62.3          152.3
     0.799               -54.1          21.26          42.47          49.33         -3.264          11.21         -171.2          66.89          146.8          62.33          152.2
    0.8434               -54.1          21.25          42.48          49.33         -3.261           11.2         -171.1          66.89          146.8          62.35          152.1
    0.8877               -54.1          21.24           42.5          49.32         -3.257          11.19         -171.0          66.88          146.7          62.38          152.1
